<svg id="Layer_1" enable-background="new 0 0 512 512" height="512" viewBox="0 0 512 512" width="512" xmlns="http://www.w3.org/2000/svg" xmlns:xlink="http://www.w3.org/1999/xlink"><linearGradient id="SVGID_1_" gradientUnits="userSpaceOnUse" x1="256" x2="256" y1="0" y2="512"><stop offset="0" stop-color="#8df49b"/><stop offset="1" stop-color="#589cf9"/></linearGradient><path d="m437.02 74.98c-48.353-48.351-112.64-74.98-181.02-74.98s-132.667 26.629-181.02 74.98c-48.351 48.353-74.98 112.64-74.98 181.02s26.629 132.667 74.98 181.02c48.353 48.351 112.64 74.98 181.02 74.98s132.667-26.629 181.02-74.98c48.351-48.353 74.98-112.64 74.98-181.02s-26.629-132.667-74.98-181.02zm-181.02 397.02c-119.103 0-216-96.897-216-216s96.897-216 216-216 216 96.897 216 216-96.897 216-216 216zm60-216c0-26.073-16.722-48.303-40-56.56v-123.44h-40v123.44c-23.278 8.256-40 30.487-40 56.56 0 33.084 26.916 60 60 60 9.252 0 18.019-2.108 25.852-5.864l63.148 63.148 28.284-28.284-63.148-63.148c3.756-7.833 5.864-16.601 5.864-25.852zm-80 0c0-11.028 8.972-20 20-20s20 8.972 20 20c0 4.095-1.241 7.903-3.361 11.077l-5.562 5.562c-3.174 2.12-6.982 3.361-11.077 3.361-11.028 0-20-8.972-20-20z" fill="url(#SVGID_1_)"/></svg>